<svg xmlns="http://www.w3.org/2000/svg" viewBox="0 0 1536 1024">
  <path d="M 766,811 763,814 763,815 762,816 762,818 761,819 761,820 760,821 760,823 759,824 759,825 758,826 758,827 757,828 757,830 756,831 756,832 755,833 755,834 754,835 754,836 753,837 753,838 752,839 752,841 751,842 751,843 750,844 750,845 749,846 749,848 748,849 748,850 744,854 743,854 742,855 741,855 740,856 737,856 736,857 734,857 733,858 732,858 731,859 729,859 728,860 726,860 725,861 724,861 723,862 721,862 720,863 718,863 717,864 716,864 715,865 713,865 712,866 711,866 710,867 709,867 708,868 707,868 705,870 705,871 707,873 709,873 710,874 711,874 712,875 714,875 715,876 717,876 718,877 720,877 721,878 723,878 724,879 725,879 726,880 728,880 729,881 731,881 732,882 734,882 735,883 737,883 738,884 740,884 741,885 742,885 743,886 745,886 748,889 748,890 749,891 749,892 750,893 750,894 751,895 751,897 752,898 752,899 753,900 753,901 754,902 754,903 755,904 755,905 756,906 756,907 757,908 757,910 758,911 758,912 759,913 759,915 760,916 760,917 761,918 761,919 762,920 762,921 763,922 763,923 765,925 765,926 766,926 769,923 769,922 770,921 770,920 771,919 771,918 772,917 772,916 773,915 773,913 774,912 774,911 775,910 775,909 776,908 776,906 777,905 777,904 778,903 778,902 779,901 779,900 780,899 780,898 781,897 781,895 782,894 782,893 783,892 783,891 784,890 784,887 785,886 789,886 790,885 792,885 793,884 794,884 795,883 797,883 798,882 800,882 801,881 803,881 804,880 806,880 807,879 808,879 809,878 811,878 812,877 814,877 815,876 817,876 818,875 820,875 821,874 822,874 823,873 824,873 825,872 826,872 827,871 827,870 825,868 824,868 823,867 822,867 821,866 820,866 819,865 816,865 815,864 814,864 813,863 811,863 810,862 808,862 807,861 806,861 805,860 803,860 802,859 800,859 799,858 798,858 797,857 795,857 794,856 792,856 791,855 787,855 786,854 786,855 785,856 784,855 784,853 783,852 783,849 782,848 782,846 781,845 781,843 780,842 780,841 779,840 779,839 778,838 778,837 777,836 777,834 776,833 776,831 775,830 775,829 774,828 774,826 773,825 773,824 772,823 772,822 771,821 771,819 770,818 770,817 769,816 769,815 768,814 768,813 767,812 767,811 Z" fill="black"/>
  <path d="M 915,782 913,784 912,784 911,785 911,786 909,788 909,791 908,792 908,796 909,797 909,799 910,800 910,801 911,802 911,803 915,807 916,807 917,808 918,808 919,809 920,809 921,810 932,810 933,809 935,809 936,810 937,810 938,811 940,811 941,812 945,812 946,813 948,813 949,812 954,812 955,811 957,811 958,810 959,810 960,809 961,809 962,808 963,808 964,807 965,807 966,806 968,806 969,807 975,807 976,806 978,806 986,798 986,797 988,795 988,794 987,794 985,796 984,796 983,797 982,797 981,798 980,798 979,799 978,799 977,800 976,800 975,801 974,801 972,803 971,803 970,804 969,804 968,805 962,805 961,804 953,804 952,803 951,803 950,802 949,802 947,800 947,798 946,797 946,793 945,793 938,800 937,800 936,801 934,801 933,802 929,802 928,801 926,801 925,800 924,800 923,799 922,799 917,794 917,793 916,792 916,790 915,789 915,787 916,786 916,782 Z" fill="black"/>
  <path d="M 617,782 617,791 616,792 616,793 615,794 615,795 612,798 611,798 609,800 607,800 606,801 597,801 596,800 595,800 594,799 593,799 587,793 586,794 586,797 585,798 585,800 583,802 582,802 581,803 579,803 578,804 573,804 572,805 568,805 567,806 566,806 564,804 563,804 562,803 561,803 560,802 559,802 558,801 557,801 556,800 555,800 554,799 553,799 552,798 551,798 549,796 548,796 547,795 546,795 545,794 544,794 544,795 548,799 548,800 553,805 554,805 555,806 557,806 558,807 564,807 565,806 567,806 568,807 569,807 571,809 572,809 573,810 574,810 575,811 577,811 578,812 591,812 592,811 594,811 595,810 597,810 598,809 600,809 601,810 612,810 613,809 615,809 617,807 618,807 622,803 622,802 623,801 623,800 624,799 624,789 623,788 623,787 619,783 618,783 Z" fill="black"/>
  <path d="M 1121,637 1120,638 1120,639 1119,640 1119,641 1118,642 1118,643 1117,644 1117,645 1114,648 1113,648 1112,649 1111,649 1110,650 1109,650 1107,652 1108,653 1109,653 1110,654 1111,654 1112,655 1113,655 1114,656 1115,656 1118,659 1118,660 1119,661 1119,662 1120,663 1120,664 1121,665 1121,666 1122,666 1122,665 1124,663 1124,662 1125,661 1125,660 1130,655 1131,655 1133,653 1134,653 1136,651 1135,650 1134,650 1133,649 1131,649 1130,648 1129,648 1128,647 1127,647 1126,646 1126,645 1124,643 1124,642 1123,641 1123,640 1122,639 1122,638 Z" fill="black"/>
  <path d="M 412,637 412,638 411,639 411,640 410,641 410,642 411,641 412,641 413,642 413,644 412,645 412,646 411,647 407,647 406,648 405,648 404,649 402,649 401,650 400,650 399,651 398,651 399,652 400,652 402,654 403,654 408,659 408,660 409,661 409,662 411,664 411,666 412,666 413,665 413,664 414,663 414,662 415,661 415,660 416,659 416,658 418,656 419,656 420,655 421,655 423,653 424,653 425,652 426,652 425,651 424,651 422,649 420,649 419,648 418,648 415,645 415,642 414,641 414,639 413,638 413,637 Z" fill="black"/>
  <path d="M 458,302 457,303 455,303 454,304 453,304 452,305 451,305 450,306 449,306 441,314 441,315 440,316 440,317 439,318 439,319 438,320 438,321 437,322 437,326 436,327 436,333 437,334 437,337 438,338 438,340 439,341 439,342 441,344 441,345 443,347 443,348 447,352 446,353 445,353 444,354 416,354 415,355 413,355 412,356 411,356 408,359 408,361 407,362 407,367 408,368 408,369 412,373 414,373 415,374 447,374 448,375 451,375 452,376 452,377 453,378 453,402 452,403 452,424 451,425 451,429 447,433 446,433 445,434 443,434 442,433 440,433 439,432 438,432 437,431 436,431 434,429 433,429 430,426 430,424 431,423 432,423 436,419 436,417 429,410 428,410 424,406 423,406 405,388 404,388 400,384 399,384 398,383 396,385 396,387 395,388 395,394 394,395 394,401 393,402 393,409 392,410 392,418 391,419 391,432 392,433 392,434 393,435 395,435 396,434 399,434 400,433 401,433 404,436 405,436 410,441 411,441 415,445 416,445 418,447 419,447 421,449 422,449 423,450 424,450 425,451 426,451 428,453 429,453 430,454 432,454 433,455 434,455 435,456 436,456 437,457 439,457 440,458 441,458 442,459 443,459 444,460 445,460 446,461 448,461 449,462 450,462 455,467 456,467 460,471 461,471 462,472 468,472 469,471 470,471 474,467 475,467 479,463 480,463 481,462 482,462 483,461 484,461 485,460 486,460 487,459 488,459 489,458 491,458 492,457 493,457 494,456 495,456 496,455 498,455 499,454 500,454 501,453 502,453 503,452 504,452 505,451 506,451 508,449 509,449 510,448 511,448 513,446 514,446 516,444 517,444 522,439 523,439 528,434 529,434 530,433 531,433 532,434 534,434 535,435 537,435 540,432 540,429 541,428 541,426 540,425 540,416 539,415 539,407 538,406 538,401 537,400 537,395 536,394 536,388 535,387 535,385 534,384 533,384 532,383 518,397 517,397 507,407 506,407 503,410 502,410 499,413 498,413 494,417 494,419 498,423 499,423 500,424 501,424 502,425 499,428 498,428 495,431 494,431 493,432 492,432 491,433 489,433 488,434 485,434 484,433 483,433 480,430 480,429 479,428 479,419 478,418 478,377 480,375 483,375 484,374 515,374 516,373 518,373 519,372 520,372 523,369 523,368 524,367 524,361 523,360 523,359 520,356 519,356 518,355 514,355 513,354 485,354 483,352 487,348 487,347 490,344 490,343 491,342 491,341 492,340 492,338 493,337 493,333 494,332 494,327 493,326 493,322 492,321 492,319 491,318 491,317 490,316 490,315 487,312 487,311 483,307 482,307 481,306 480,306 478,304 477,304 476,303 474,303 473,302 Z" fill="black"/>
  <path d="M 1073,296 1072,297 1065,297 1064,298 1061,298 1060,299 1057,299 1056,300 1054,300 1053,301 1052,301 1051,302 1050,302 1049,303 1047,303 1045,305 1043,305 1041,307 1040,307 1038,309 1037,309 1033,313 1032,313 1022,323 1022,324 1019,327 1019,328 1017,330 1017,331 1015,333 1015,334 1014,335 1014,336 1013,337 1013,338 1012,339 1012,340 1011,341 1011,343 1010,344 1010,345 1009,346 1009,348 1008,349 1008,352 1007,353 1007,358 1006,359 1006,382 1007,383 1007,387 1008,388 1008,391 1009,392 1009,394 1010,395 1010,396 1011,397 1011,399 1012,400 1012,401 1013,402 1013,403 1014,404 1014,405 1016,407 1016,408 1017,409 1017,410 1019,412 1019,413 1022,416 1022,417 1032,427 1033,427 1036,430 1037,430 1040,433 1041,433 1042,434 1043,434 1044,435 1045,435 1046,436 1047,436 1048,437 1049,437 1050,438 1051,438 1052,439 1054,439 1055,440 1057,440 1058,441 1060,441 1061,442 1064,442 1065,443 1068,443 1069,444 1076,444 1077,445 1083,445 1084,444 1092,444 1093,443 1098,443 1099,442 1101,442 1102,441 1105,441 1106,440 1107,440 1108,439 1110,439 1111,438 1112,438 1113,437 1114,437 1115,436 1116,436 1117,435 1118,435 1119,434 1120,434 1122,432 1123,432 1125,430 1126,430 1132,424 1133,424 1133,423 1140,416 1140,415 1142,413 1142,412 1143,411 1143,410 1145,408 1145,407 1146,406 1146,405 1147,404 1147,403 1148,402 1148,401 1149,400 1149,398 1150,397 1150,395 1151,394 1151,390 1152,389 1152,383 1150,381 1147,381 1146,382 1145,382 1145,383 1137,391 1136,391 1134,393 1133,393 1131,395 1130,395 1129,396 1128,396 1127,397 1126,397 1125,398 1123,398 1122,399 1120,399 1119,400 1116,400 1115,401 1098,401 1097,400 1094,400 1093,399 1090,399 1089,398 1088,398 1087,397 1085,397 1084,396 1083,396 1081,394 1080,394 1078,392 1077,392 1073,388 1072,388 1071,387 1071,386 1066,381 1066,380 1064,378 1064,377 1063,376 1063,375 1062,374 1062,373 1061,372 1061,370 1060,369 1060,367 1059,366 1059,364 1058,363 1058,359 1057,358 1057,346 1058,345 1058,341 1059,340 1059,337 1060,336 1060,335 1061,334 1061,333 1062,332 1062,330 1063,329 1063,328 1065,326 1065,325 1070,320 1070,319 1072,317 1073,317 1078,312 1079,312 1080,311 1081,311 1083,309 1084,309 1085,308 1087,308 1088,307 1090,307 1091,306 1093,306 1096,303 1096,302 1095,301 1095,300 1093,298 1091,298 1090,297 1084,297 1083,296 Z" fill="black"/>
  <path d="M 760,69 759,70 754,70 753,71 751,71 750,72 749,72 748,73 747,73 746,74 745,74 744,75 743,75 742,74 736,74 735,75 731,75 730,76 728,76 727,77 725,77 724,78 722,78 721,79 720,79 719,80 718,80 716,82 715,82 713,84 712,84 709,87 708,87 705,90 704,90 702,92 701,92 698,95 697,95 693,99 692,99 690,101 690,102 685,107 685,108 683,110 683,111 682,112 682,113 681,114 681,115 680,116 680,117 679,118 679,119 678,120 678,121 677,122 677,123 676,124 676,125 675,126 675,127 673,129 673,131 672,132 672,134 671,135 671,151 672,152 672,154 673,155 673,157 674,158 674,171 675,172 675,175 676,176 676,177 677,178 677,179 685,187 686,187 687,188 688,188 689,189 690,189 691,190 692,190 693,191 694,191 695,192 696,192 697,193 698,193 700,195 700,200 699,201 699,203 698,204 698,212 699,213 699,214 702,217 703,217 704,218 706,218 707,219 726,219 727,218 743,218 744,219 746,219 748,221 748,222 749,223 749,232 748,233 748,235 747,236 747,238 746,239 746,240 745,241 745,242 744,243 744,244 743,245 743,247 742,248 742,249 741,250 741,251 740,252 740,253 739,254 739,255 738,256 738,257 737,258 737,259 736,260 736,261 735,262 735,263 734,264 734,266 733,267 733,268 732,269 732,270 731,271 731,272 730,273 730,274 729,275 729,277 728,278 728,279 727,280 727,281 726,282 726,283 725,284 725,285 724,286 724,287 723,288 723,289 722,290 722,295 723,296 724,296 725,295 728,295 729,294 731,294 732,293 734,293 735,292 738,292 739,291 742,291 743,292 743,293 744,294 744,378 743,379 743,385 742,386 742,388 741,389 741,390 740,391 740,392 739,393 739,394 735,398 734,398 733,399 732,399 731,400 729,400 728,401 717,401 716,402 714,402 713,401 707,401 706,400 704,400 703,399 702,399 701,398 700,398 696,394 696,393 694,391 694,390 693,389 693,388 692,387 692,385 691,384 691,380 690,379 690,374 689,373 689,369 688,368 688,364 687,363 687,358 686,357 686,353 685,352 685,348 684,347 684,343 683,342 683,338 682,337 682,334 681,333 681,329 680,328 680,325 679,324 679,319 678,318 678,315 677,314 677,310 676,309 676,306 675,305 675,302 674,301 674,298 673,297 673,295 672,294 672,290 671,289 671,286 672,285 676,285 677,286 680,286 681,287 683,287 684,288 686,288 687,289 688,289 689,290 691,290 692,291 694,291 695,292 698,292 699,291 699,289 698,288 698,287 693,282 693,281 682,270 682,269 672,259 672,258 660,246 660,245 647,232 647,231 632,216 632,215 617,200 617,199 609,191 608,191 607,190 606,190 605,189 604,189 603,190 603,195 604,196 604,207 605,208 605,218 606,219 606,227 607,228 607,238 608,239 608,249 609,250 609,259 610,260 610,269 611,270 611,277 612,278 612,287 613,288 613,295 614,296 614,299 615,300 615,301 617,303 618,303 619,302 620,302 623,299 623,298 627,294 627,293 629,291 630,291 631,292 631,294 632,295 632,297 633,298 633,300 634,301 634,303 635,304 635,307 636,308 636,311 637,312 637,316 638,317 638,320 639,321 639,325 640,326 640,330 641,331 641,336 642,337 642,342 643,343 643,349 644,350 644,356 645,357 645,365 646,366 646,375 647,376 647,392 648,393 648,428 647,429 646,428 646,427 645,426 645,425 644,424 644,423 643,422 643,421 642,420 642,419 641,418 641,416 640,415 640,414 639,413 639,412 638,411 638,409 637,408 637,407 636,406 636,405 635,404 635,403 634,402 634,401 633,400 633,399 632,398 632,397 631,396 631,395 630,394 630,393 629,392 629,390 628,389 628,388 627,387 627,386 626,385 626,384 625,383 625,382 624,381 624,380 623,379 623,378 622,377 622,376 621,375 621,374 620,373 620,372 619,371 619,370 618,369 618,368 617,367 617,366 616,365 616,364 615,363 615,362 614,361 614,360 613,359 613,358 612,357 612,356 611,355 611,354 610,353 610,352 609,351 609,350 608,349 608,348 607,347 607,346 606,345 606,344 605,343 605,342 604,341 604,340 603,339 603,338 602,337 602,336 601,335 601,334 600,333 600,329 601,328 604,328 605,329 608,329 609,330 612,330 613,331 617,331 618,332 622,332 623,333 624,332 625,332 626,331 626,330 625,329 625,328 622,325 622,324 617,319 616,319 610,313 609,313 605,309 604,309 601,306 600,306 598,304 597,304 594,301 593,301 591,299 590,299 588,297 587,297 586,296 585,296 583,294 582,294 580,292 579,292 578,291 577,291 575,289 574,289 573,288 572,288 571,287 570,287 569,286 568,286 566,284 565,284 564,283 563,283 562,282 561,282 560,281 559,281 558,280 557,280 556,279 555,279 554,278 553,278 552,277 551,277 550,276 549,276 548,275 547,275 546,274 545,274 544,273 543,273 542,272 538,272 537,273 537,275 538,276 538,277 539,278 539,279 540,280 540,282 542,284 542,286 543,287 543,288 544,289 544,290 545,291 545,292 546,293 546,294 547,295 547,296 548,297 548,298 549,299 549,300 550,301 550,303 551,304 551,305 552,306 552,307 553,308 553,309 554,310 554,311 555,312 555,314 556,315 556,316 557,317 557,318 558,319 558,321 559,322 559,323 560,324 560,325 561,326 561,327 562,328 562,330 563,331 563,332 564,333 564,334 565,335 565,336 566,337 566,339 567,340 567,341 568,342 568,344 569,345 569,346 570,347 570,349 571,350 571,351 572,352 572,353 573,354 573,356 574,357 574,359 575,360 575,361 576,362 576,364 577,365 577,366 578,367 578,369 579,370 579,371 580,372 580,374 581,375 581,376 582,377 582,379 583,380 583,382 584,383 584,385 585,386 585,388 586,389 586,390 587,391 587,393 588,394 588,396 589,397 589,399 590,400 590,402 591,403 591,405 592,406 592,408 593,409 593,411 594,412 594,414 595,415 595,417 596,418 596,419 597,420 597,422 598,423 598,425 599,426 599,428 600,429 600,431 601,432 601,435 602,436 602,438 603,439 603,440 600,443 599,443 598,444 597,444 596,445 593,445 592,446 590,446 589,447 586,447 585,448 583,448 582,449 579,449 578,450 576,450 575,451 574,451 573,452 571,452 570,453 568,453 567,454 565,454 564,455 562,455 561,456 560,456 559,457 557,457 556,458 554,458 553,459 552,459 551,460 550,460 549,461 547,461 546,462 545,462 544,463 543,463 542,464 541,464 540,465 539,465 538,466 537,466 536,467 535,467 533,469 532,469 531,470 530,470 528,472 527,472 525,474 524,474 520,478 519,478 516,481 515,481 513,483 511,483 510,484 507,484 506,485 501,485 500,486 490,486 489,487 470,487 469,486 453,486 452,485 442,485 441,484 432,484 431,483 423,483 422,482 416,482 415,481 409,481 408,480 401,480 400,479 395,479 394,478 390,478 389,477 384,477 383,476 379,476 378,475 375,475 374,474 371,474 370,473 367,473 366,472 363,472 362,471 359,471 358,470 356,470 355,469 352,469 351,468 349,468 348,467 347,467 346,466 344,466 343,465 342,465 341,464 339,464 338,463 337,463 336,462 335,462 334,461 333,461 332,460 331,460 330,459 328,459 327,458 326,458 325,459 324,459 322,461 322,463 323,464 323,466 324,467 324,468 325,469 325,470 326,471 326,472 327,473 327,474 328,475 328,476 329,477 329,478 330,479 330,480 332,482 332,483 333,484 333,485 335,487 335,488 337,490 337,491 341,495 341,496 347,502 347,503 357,513 358,513 363,518 364,518 367,521 368,521 371,524 372,524 377,529 375,531 375,532 372,535 371,535 367,539 366,539 363,542 362,542 360,544 359,544 357,546 356,546 354,548 353,548 352,549 351,549 350,550 349,550 348,551 347,551 346,552 345,552 344,553 343,553 342,554 340,554 339,555 338,555 337,556 335,556 334,557 333,557 332,558 330,558 329,559 327,559 326,560 324,560 322,562 322,563 325,566 327,566 328,567 329,567 330,568 332,568 333,569 335,569 336,570 337,570 338,571 340,571 341,572 343,572 344,573 346,573 347,574 349,574 350,575 353,575 354,576 357,576 358,577 361,577 362,578 365,578 366,579 370,579 371,580 375,580 376,581 382,581 383,582 390,582 391,583 404,583 405,584 435,584 437,586 438,586 441,589 442,589 444,591 445,591 446,592 447,592 448,593 450,593 451,594 453,594 454,595 456,595 457,596 460,596 461,597 463,597 464,598 467,598 468,599 472,599 473,600 475,600 476,601 477,601 478,602 479,602 481,604 480,605 480,606 479,607 479,608 478,609 478,610 477,611 477,612 476,613 476,614 475,615 475,616 474,617 474,618 472,620 472,622 471,623 471,624 470,625 470,627 469,628 469,629 468,630 468,632 467,633 467,635 466,636 466,639 465,640 465,643 464,644 464,655 465,656 465,657 466,658 470,658 471,657 472,657 473,656 474,656 476,654 477,654 478,653 479,653 480,652 481,652 483,650 484,650 485,649 486,649 487,648 488,648 490,646 491,646 492,645 493,645 494,644 495,644 496,643 498,643 499,642 500,642 501,641 502,641 503,640 504,640 505,639 507,639 508,638 509,638 510,637 512,637 513,636 515,636 516,635 518,635 519,634 521,634 522,633 524,633 525,632 528,632 529,631 533,631 534,630 539,630 540,629 547,629 548,628 569,628 570,627 574,627 575,628 583,628 584,629 590,629 591,630 596,630 597,631 602,631 603,632 608,632 609,633 613,633 614,634 620,634 621,635 627,635 628,636 637,636 638,637 639,636 642,636 642,628 641,627 641,625 640,624 640,621 639,620 639,618 638,617 638,615 637,614 637,611 636,610 636,607 635,606 635,604 634,603 634,600 633,599 633,595 632,594 632,590 631,589 631,587 633,585 634,585 635,584 637,584 638,583 644,583 645,582 655,582 656,581 659,581 660,582 664,582 665,583 667,583 668,584 669,584 670,585 671,585 672,586 673,586 674,587 675,587 676,588 677,588 678,589 679,589 680,590 681,590 682,591 683,591 684,592 685,592 686,593 687,593 689,595 690,595 691,596 692,596 693,597 694,597 695,598 696,598 697,599 698,599 699,600 700,600 701,601 702,601 703,602 704,602 706,604 707,604 708,605 709,605 710,606 711,606 713,608 714,608 715,609 716,609 719,612 720,612 725,617 725,618 726,619 726,620 728,622 728,623 729,624 730,624 731,625 732,625 733,626 734,626 737,629 737,631 738,632 738,658 737,659 737,660 736,661 732,657 732,656 728,652 728,651 725,648 724,648 722,646 721,646 720,645 719,645 718,644 707,644 706,645 706,647 707,647 709,645 715,645 716,646 717,646 724,653 724,654 726,656 726,657 728,659 728,660 729,661 729,662 730,663 730,664 731,665 731,666 732,667 732,668 733,669 733,670 734,671 734,672 735,673 735,675 736,676 736,678 737,679 737,697 736,698 734,696 734,695 732,693 732,692 730,690 730,689 728,687 728,686 726,684 726,683 722,679 722,678 716,672 716,671 708,663 707,663 702,658 701,658 698,655 697,655 694,652 693,652 691,650 690,650 689,649 688,649 686,647 685,647 684,646 683,646 682,645 681,645 680,644 679,644 678,643 677,643 676,642 675,642 674,641 673,641 672,640 671,640 669,638 668,638 667,637 666,637 665,636 663,636 668,641 669,641 671,643 672,643 673,644 674,644 676,646 677,646 679,648 680,648 683,651 684,651 686,653 687,653 691,657 692,657 711,676 711,677 715,681 715,682 718,685 718,686 720,688 720,689 722,691 722,692 724,694 724,695 725,696 725,697 726,698 726,699 728,701 728,703 729,704 729,705 731,707 731,709 732,710 732,711 733,712 733,713 734,714 734,715 735,716 735,718 736,719 736,720 737,721 737,724 738,725 738,731 737,732 736,731 736,730 735,729 735,728 733,726 733,724 732,723 732,722 731,721 731,720 730,719 730,718 729,717 729,716 728,715 728,714 727,713 727,712 726,711 726,710 724,708 724,707 723,706 723,705 720,702 720,701 719,700 719,699 716,696 716,695 713,692 713,691 710,688 710,687 706,683 706,682 690,666 689,666 687,664 686,664 684,662 683,662 681,660 680,660 678,658 677,658 676,657 674,657 673,656 672,656 671,655 669,655 668,654 666,654 665,653 662,653 661,652 648,652 647,653 645,653 644,654 643,654 641,656 642,657 658,657 659,658 663,658 664,659 666,659 667,660 668,660 669,661 670,661 671,662 672,662 673,663 674,663 675,664 676,664 678,666 679,666 681,668 682,668 688,674 689,674 697,682 697,683 703,689 703,690 706,693 706,694 710,698 710,699 713,702 713,703 715,705 715,706 717,708 717,709 718,710 718,711 719,712 719,713 721,715 721,716 722,717 722,718 724,720 724,721 725,722 725,723 726,724 726,725 727,726 727,727 728,728 728,729 729,730 729,731 730,732 730,733 731,734 731,735 732,736 732,738 733,739 733,741 734,742 734,743 735,744 735,746 736,747 736,749 737,750 737,754 738,755 738,763 737,764 737,766 736,767 735,766 735,764 734,763 734,762 733,761 733,760 732,759 732,758 731,757 731,756 730,755 730,754 729,753 729,752 728,751 728,750 727,749 727,748 725,746 725,745 724,744 724,743 722,741 722,740 720,738 720,737 718,735 718,734 715,731 715,730 711,726 711,725 705,719 705,718 691,704 690,704 684,698 683,698 680,695 679,695 676,692 675,692 672,689 671,689 669,687 668,687 666,685 665,685 663,683 662,683 661,682 660,682 658,680 657,680 656,679 655,679 653,677 652,677 651,676 650,676 649,675 648,675 647,674 646,674 645,673 644,673 643,672 642,672 641,671 640,671 639,670 638,670 637,669 636,669 635,668 634,668 633,667 631,667 630,666 629,666 628,665 627,665 626,664 624,664 623,663 622,663 621,662 619,662 618,661 616,661 615,660 613,660 612,659 610,659 609,658 606,658 605,657 603,657 602,656 599,656 598,655 594,655 593,654 589,654 588,653 583,653 582,652 576,652 575,651 564,651 563,650 550,650 549,651 537,651 536,652 531,652 530,653 526,653 525,654 522,654 521,655 519,655 518,656 516,656 515,657 514,657 513,658 512,658 511,659 510,659 509,660 508,660 507,661 506,661 505,662 504,662 502,664 501,664 499,666 498,666 492,672 491,672 485,678 484,678 481,681 480,681 477,684 476,684 473,687 472,687 469,690 468,690 467,691 466,691 464,693 463,693 461,695 460,695 458,697 457,697 456,698 455,698 453,700 451,700 450,701 449,701 448,702 447,702 446,703 445,703 444,704 442,704 441,705 439,705 438,706 435,706 434,707 430,707 429,708 418,708 417,707 413,707 412,706 410,706 409,705 408,705 407,704 406,704 405,703 404,703 403,702 401,702 401,703 400,704 401,705 401,706 404,709 405,709 406,710 407,710 408,711 410,711 411,712 413,712 414,713 417,713 418,714 433,714 434,713 438,713 439,712 442,712 443,711 445,711 446,710 448,710 449,709 450,709 451,708 452,708 453,707 454,707 455,706 456,706 457,705 458,705 459,704 460,704 462,702 463,702 464,701 465,701 467,699 468,699 469,698 470,698 472,696 473,696 474,695 475,695 476,696 476,708 477,709 477,712 478,713 478,714 479,715 479,716 480,717 480,718 482,720 482,721 484,723 481,726 480,726 479,727 478,727 477,728 476,728 475,729 474,729 473,730 472,730 471,731 469,731 468,732 466,732 465,733 463,733 462,734 459,734 458,735 454,735 453,736 436,736 435,735 430,735 429,734 426,734 425,733 423,733 423,735 424,736 424,737 427,740 428,740 429,741 431,741 432,742 433,742 434,743 437,743 438,744 443,744 444,745 455,745 456,744 461,744 462,743 465,743 466,742 468,742 469,741 471,741 472,740 473,740 474,739 475,739 476,738 477,738 478,737 479,737 480,736 481,736 482,735 483,735 484,734 485,734 487,732 488,732 490,730 491,730 492,729 493,729 494,728 495,728 496,727 500,727 501,728 503,728 506,731 506,732 507,733 507,734 508,735 508,736 509,737 509,739 510,740 510,741 511,742 511,743 508,746 507,746 505,748 504,748 503,749 502,749 501,750 500,750 499,751 498,751 497,752 496,752 495,753 493,753 492,754 491,754 490,755 488,755 487,756 485,756 484,757 480,757 479,758 466,758 465,757 464,757 463,756 462,756 460,754 459,754 458,753 458,754 460,756 461,756 462,757 463,757 464,758 465,758 466,759 469,759 470,760 487,760 488,759 492,759 493,758 495,758 496,757 498,757 499,756 501,756 502,755 503,755 504,754 505,754 506,753 507,753 508,752 509,752 510,751 511,751 512,750 513,750 514,749 515,749 516,748 517,748 518,749 521,749 522,750 532,750 533,749 534,749 535,748 537,748 538,747 539,747 540,748 540,750 541,751 541,756 537,760 536,760 535,761 534,761 533,762 532,762 531,763 530,763 529,764 528,764 527,765 526,765 525,766 524,766 523,767 521,767 520,768 518,768 517,769 515,769 514,770 512,770 511,771 508,771 507,772 504,772 503,773 500,773 499,774 491,774 490,775 476,775 475,776 475,778 476,779 477,779 478,780 481,780 482,781 501,781 502,780 511,780 512,779 516,779 517,778 519,778 520,777 523,777 524,776 527,776 528,775 529,775 530,774 532,774 533,773 534,773 536,771 537,771 538,770 539,770 541,768 542,768 544,766 548,770 548,771 551,774 552,774 556,778 557,778 558,779 559,779 561,781 563,781 564,782 566,782 567,783 583,783 584,782 587,782 591,778 591,777 592,776 592,775 593,774 593,773 594,772 594,771 596,769 596,768 601,763 602,763 603,762 604,762 605,761 606,761 607,760 609,760 610,759 614,759 615,758 624,758 625,759 629,759 630,760 633,760 634,761 635,761 636,762 638,762 640,764 641,764 642,765 643,765 646,768 647,768 654,775 654,776 656,778 656,779 657,780 657,781 658,782 658,783 659,784 659,787 660,788 660,794 659,795 659,802 661,804 664,804 665,803 667,803 670,800 670,799 671,798 671,787 670,786 670,784 669,783 669,781 668,780 668,779 666,777 666,776 665,775 665,774 661,770 661,769 655,763 654,763 651,760 650,760 648,758 647,758 646,757 645,757 643,755 641,755 640,754 639,754 638,753 637,753 636,752 634,752 633,751 630,751 629,750 623,750 622,749 616,749 615,750 609,750 608,751 606,751 605,752 603,752 602,753 601,753 599,755 598,755 597,756 596,756 588,764 588,765 587,766 586,765 586,764 585,763 585,758 586,757 586,755 587,754 587,753 588,752 588,751 590,749 590,748 598,740 599,740 601,738 602,738 603,737 604,737 605,736 606,736 607,735 609,735 610,734 613,734 614,733 618,733 619,732 628,732 629,733 635,733 636,734 639,734 640,735 643,735 644,736 646,736 647,737 648,737 649,738 650,738 651,739 652,739 653,740 654,740 655,741 656,741 657,742 658,742 660,744 661,744 663,746 664,746 667,749 668,749 682,763 682,764 685,767 685,768 686,769 686,770 687,771 687,772 689,774 689,775 690,776 690,778 691,779 691,780 692,781 692,783 693,784 693,787 694,788 694,794 695,795 695,796 694,797 694,805 693,806 693,809 692,810 692,811 691,812 691,813 690,814 690,815 689,816 689,817 680,826 679,826 678,827 677,827 676,828 675,828 674,829 673,829 672,830 669,830 668,831 656,831 655,830 653,830 652,829 651,829 650,828 649,828 644,823 644,822 643,821 643,820 642,819 642,818 641,817 641,813 640,812 640,809 641,808 641,804 642,803 642,800 641,799 639,801 638,801 637,802 637,803 635,805 635,806 633,808 633,809 632,810 632,813 631,814 631,821 632,822 632,825 633,826 633,828 635,830 635,831 640,836 641,836 642,837 643,837 644,838 645,838 646,839 647,839 648,840 650,840 651,841 654,841 655,842 669,842 670,841 673,841 674,840 676,840 677,839 678,839 679,838 680,838 681,837 682,837 684,835 685,835 686,834 687,834 694,827 694,826 696,824 696,823 698,821 698,820 699,819 699,818 700,817 700,816 701,815 701,813 702,812 702,811 704,809 706,809 707,810 709,810 710,811 711,811 713,813 714,813 719,818 719,819 720,820 720,821 722,823 722,824 723,825 723,827 724,828 724,829 725,830 725,833 726,834 726,836 727,837 727,839 728,840 728,842 729,843 729,844 733,848 744,848 745,847 746,847 746,830 747,829 747,626 748,625 750,625 751,624 757,624 758,623 774,623 775,624 780,624 781,625 782,625 783,626 783,841 784,842 784,845 785,846 785,847 787,849 796,849 797,848 799,848 800,847 801,847 801,846 803,844 803,843 804,842 804,840 805,839 805,837 806,836 806,834 807,833 807,831 808,830 808,828 809,827 809,826 810,825 810,824 811,823 811,822 812,821 812,820 820,812 821,812 822,811 823,811 824,810 826,810 827,809 828,809 830,811 830,812 831,813 831,814 832,815 832,816 833,817 833,819 835,821 835,822 836,823 836,824 839,827 839,828 845,834 846,834 848,836 849,836 850,837 851,837 852,838 853,838 854,839 856,839 857,840 859,840 860,841 863,841 864,842 877,842 878,841 881,841 882,840 884,840 885,839 886,839 887,838 888,838 889,837 890,837 892,835 893,835 898,830 898,829 899,828 899,827 900,826 900,824 901,823 901,812 900,811 900,809 899,808 899,807 898,806 898,805 892,799 891,799 891,800 890,801 891,802 891,805 892,806 892,816 891,817 891,819 890,820 890,821 887,824 887,825 886,826 885,826 882,829 880,829 879,830 877,830 876,831 863,831 862,830 860,830 859,829 858,829 857,828 856,828 855,827 854,827 851,824 850,824 845,819 845,818 842,815 842,814 841,813 841,811 840,810 840,808 839,807 839,804 838,803 838,790 839,789 839,785 840,784 840,782 841,781 841,780 842,779 842,777 843,776 843,775 844,774 844,773 845,772 845,771 847,769 847,768 849,766 849,765 853,761 853,760 863,750 864,750 867,747 868,747 870,745 871,745 873,743 874,743 875,742 876,742 878,740 879,740 880,739 881,739 882,738 883,738 884,737 886,737 887,736 888,736 889,735 891,735 892,734 896,734 897,733 902,733 903,732 913,732 914,733 919,733 920,734 923,734 924,735 926,735 927,736 928,736 929,737 930,737 931,738 932,738 934,740 935,740 942,747 942,748 944,750 944,751 945,752 945,754 946,755 946,756 947,757 947,764 946,765 945,765 944,764 944,763 938,757 937,757 935,755 934,755 932,753 931,753 930,752 928,752 927,751 925,751 924,750 918,750 917,749 910,749 909,750 904,750 903,751 900,751 899,752 897,752 896,753 894,753 893,754 892,754 891,755 890,755 889,756 888,756 887,757 886,757 884,759 883,759 881,761 880,761 869,772 869,773 867,775 867,776 865,778 865,779 864,780 864,781 863,782 863,784 862,785 862,788 861,789 861,797 862,798 862,799 863,800 863,801 865,803 866,803 867,804 871,804 873,802 873,801 874,800 874,799 873,798 873,793 872,792 872,788 873,787 873,785 874,784 874,782 875,781 875,780 877,778 877,777 881,773 881,772 883,770 884,770 888,766 889,766 891,764 892,764 893,763 894,763 895,762 896,762 897,761 899,761 900,760 902,760 903,759 907,759 908,758 918,758 919,759 923,759 924,760 926,760 927,761 928,761 929,762 930,762 939,771 939,772 940,773 940,774 942,776 942,777 944,779 944,780 945,780 946,781 947,781 948,782 950,782 951,783 964,783 965,782 967,782 968,781 970,781 971,780 972,780 973,779 974,779 975,778 976,778 978,776 979,776 985,770 985,769 988,766 990,768 991,768 992,769 993,769 994,770 995,770 997,772 998,772 999,773 1000,773 1001,774 1003,774 1004,775 1005,775 1006,776 1009,776 1010,777 1013,777 1014,778 1016,778 1017,779 1021,779 1022,780 1028,780 1029,781 1047,781 1048,780 1052,780 1053,779 1055,779 1057,777 1057,776 1056,775 1040,775 1039,774 1034,774 1033,773 1029,773 1028,772 1025,772 1024,771 1022,771 1021,770 1018,770 1017,769 1015,769 1014,768 1012,768 1011,767 1010,767 1009,766 1008,766 1007,765 1006,765 1005,764 1003,764 1001,762 1000,762 999,761 998,761 997,760 996,760 992,756 992,749 993,748 993,747 994,746 995,747 996,747 997,748 999,748 1000,749 1002,749 1003,750 1009,750 1010,749 1013,749 1014,748 1016,748 1017,749 1018,749 1019,750 1020,750 1021,751 1022,751 1023,752 1024,752 1025,753 1027,753 1028,754 1029,754 1030,755 1031,755 1032,756 1033,756 1034,757 1036,757 1037,758 1040,758 1041,759 1045,759 1046,760 1061,760 1062,759 1065,759 1066,758 1068,758 1069,757 1070,757 1072,755 1073,755 1074,754 1074,753 1073,754 1072,754 1070,756 1069,756 1068,757 1065,757 1064,758 1053,758 1052,757 1048,757 1047,756 1045,756 1044,755 1042,755 1041,754 1040,754 1039,753 1037,753 1036,752 1035,752 1034,751 1033,751 1032,750 1031,750 1030,749 1029,749 1027,747 1026,747 1022,743 1022,742 1023,741 1023,740 1024,739 1024,737 1025,736 1025,734 1026,733 1026,732 1027,731 1027,730 1029,728 1031,728 1032,727 1036,727 1037,728 1039,728 1040,729 1041,729 1042,730 1043,730 1044,731 1045,731 1048,734 1049,734 1050,735 1051,735 1052,736 1053,736 1055,738 1056,738 1057,739 1059,739 1060,740 1061,740 1062,741 1063,741 1064,742 1066,742 1067,743 1071,743 1072,744 1077,744 1078,745 1090,745 1091,744 1095,744 1096,743 1099,743 1100,742 1101,742 1102,741 1103,741 1104,740 1105,740 1106,739 1107,739 1108,738 1108,737 1109,736 1109,733 1107,733 1106,734 1104,734 1103,735 1099,735 1098,736 1079,736 1078,735 1074,735 1073,734 1070,734 1069,733 1067,733 1066,732 1064,732 1063,731 1062,731 1061,730 1060,730 1059,729 1057,729 1056,728 1055,728 1054,727 1053,727 1051,725 1050,725 1049,724 1049,722 1052,719 1052,718 1054,716 1054,715 1055,714 1055,712 1056,711 1056,708 1057,707 1057,695 1058,694 1060,696 1061,696 1063,698 1064,698 1066,700 1067,700 1069,702 1070,702 1071,703 1072,703 1073,704 1074,704 1075,705 1076,705 1078,707 1079,707 1080,708 1081,708 1082,709 1084,709 1085,710 1086,710 1087,711 1090,711 1091,712 1093,712 1094,713 1098,713 1099,714 1115,714 1116,713 1120,713 1121,712 1123,712 1124,711 1125,711 1126,710 1127,710 1132,705 1132,701 1131,702 1130,702 1129,703 1128,703 1127,704 1126,704 1125,705 1124,705 1123,706 1120,706 1119,707 1115,707 1114,708 1105,708 1104,707 1099,707 1098,706 1095,706 1094,705 1091,705 1090,704 1089,704 1088,703 1086,703 1085,702 1084,702 1083,701 1082,701 1081,700 1080,700 1078,698 1077,698 1076,697 1075,697 1074,696 1073,696 1071,694 1070,694 1068,692 1067,692 1065,690 1064,690 1062,688 1061,688 1058,685 1057,685 1054,682 1053,682 1050,679 1049,679 1043,673 1042,673 1036,667 1035,667 1032,664 1031,664 1029,662 1028,662 1027,661 1026,661 1025,660 1024,660 1023,659 1022,659 1021,658 1020,658 1019,657 1018,657 1017,656 1015,656 1014,655 1011,655 1010,654 1007,654 1006,653 1002,653 1001,652 996,652 995,651 986,651 985,650 970,650 969,651 955,651 954,652 949,652 948,653 943,653 942,654 939,654 938,655 934,655 933,656 931,656 930,657 927,657 926,658 924,658 923,659 921,659 920,660 918,660 917,661 915,661 914,662 912,662 911,663 909,663 908,664 907,664 906,665 904,665 903,666 902,666 901,667 899,667 898,668 897,668 896,669 895,669 894,670 893,670 892,671 891,671 890,672 889,672 888,673 887,673 886,674 885,674 884,675 883,675 881,677 880,677 879,678 878,678 877,679 876,679 874,681 873,681 872,682 871,682 869,684 868,684 866,686 865,686 863,688 862,688 859,691 858,691 855,694 854,694 852,696 851,696 847,700 846,700 833,713 832,713 831,714 831,715 824,722 824,723 820,727 820,728 816,732 816,733 814,735 814,736 813,737 813,738 811,740 811,741 809,743 809,744 808,745 808,746 806,748 806,749 805,750 805,751 804,752 804,753 803,754 803,755 802,756 802,757 801,758 801,759 800,760 800,761 799,762 799,763 798,764 798,765 797,766 796,765 796,760 795,759 795,757 796,756 796,749 797,748 797,746 798,745 798,743 799,742 799,740 800,739 800,738 801,737 801,736 802,735 802,734 803,733 803,732 804,731 804,730 805,729 805,728 806,727 806,726 807,725 807,724 808,723 808,722 809,721 809,720 810,719 810,718 812,716 812,715 813,714 813,713 814,712 814,711 816,709 816,708 818,706 818,705 821,702 821,701 823,699 823,698 826,695 826,694 830,690 830,689 835,684 835,683 847,671 848,671 852,667 853,667 856,664 857,664 858,663 859,663 860,662 861,662 862,661 863,661 864,660 866,660 867,659 868,659 869,658 872,658 873,657 890,657 891,656 889,654 888,654 887,653 886,653 885,652 872,652 871,653 867,653 866,654 864,654 863,655 861,655 860,656 859,656 858,657 857,657 856,658 855,658 854,659 853,659 851,661 850,661 849,662 848,662 844,666 843,666 837,672 836,672 831,677 831,678 825,684 825,685 821,689 821,690 818,693 818,694 816,696 816,697 814,699 814,700 812,702 812,703 810,705 810,706 809,707 809,708 807,710 807,711 806,712 806,713 805,714 805,715 804,716 804,717 803,718 803,719 802,720 802,721 801,722 801,723 800,724 800,725 799,726 799,727 796,730 795,729 795,724 796,723 796,720 797,719 797,717 798,716 798,715 799,714 799,713 800,712 800,711 801,710 801,709 802,708 802,707 803,706 803,705 804,704 804,703 805,702 805,701 806,700 806,699 808,697 808,696 809,695 809,694 810,693 810,692 812,690 812,689 815,686 815,685 817,683 817,682 821,678 821,677 828,670 828,669 834,663 835,663 842,656 843,656 846,653 847,653 850,650 851,650 853,648 854,648 856,646 857,646 859,644 860,644 862,642 863,642 866,639 867,639 868,638 868,637 869,636 869,635 868,636 867,636 865,638 864,638 863,639 862,639 861,640 860,640 859,641 858,641 857,642 856,642 854,644 853,644 852,645 851,645 850,646 849,646 848,647 847,647 845,649 844,649 843,650 842,650 840,652 839,652 837,654 836,654 833,657 832,657 825,664 824,664 817,671 817,672 812,677 812,678 807,683 807,684 805,686 805,687 803,689 803,690 800,693 800,694 799,695 799,696 797,698 796,697 796,692 795,691 795,687 796,686 796,678 797,677 797,675 798,674 798,672 799,671 799,670 800,669 800,667 801,666 801,665 802,664 802,663 803,662 803,661 805,659 805,658 806,657 806,656 809,653 809,652 814,647 815,647 817,645 823,645 825,647 827,647 828,646 826,644 825,644 824,643 819,643 818,644 814,644 813,645 812,645 810,647 809,647 802,654 802,655 799,658 799,659 797,661 796,660 796,657 795,656 795,632 796,631 796,629 799,626 800,626 801,625 802,625 803,624 804,624 806,622 806,621 807,620 807,619 808,618 808,617 812,613 813,613 816,610 817,610 818,609 819,609 821,607 822,607 824,605 825,605 826,604 827,604 828,603 829,603 830,602 831,602 832,601 833,601 834,600 835,600 836,599 837,599 839,597 840,597 841,596 842,596 843,595 844,595 845,594 846,594 847,593 848,593 850,591 851,591 852,590 853,590 854,589 855,589 856,588 857,588 858,587 859,587 860,586 861,586 862,585 863,585 864,584 865,584 866,583 867,583 868,582 871,582 872,581 885,581 886,582 892,582 893,583 896,583 897,584 899,584 902,587 902,590 901,591 901,594 900,595 900,598 899,599 899,602 898,603 898,606 897,607 897,609 896,610 896,613 895,614 895,616 894,617 894,620 893,621 893,624 892,625 892,629 891,630 891,634 892,635 892,636 893,637 897,637 898,636 905,636 906,635 913,635 914,634 919,634 920,633 926,633 927,632 931,632 932,631 938,631 939,630 945,630 946,629 952,629 953,628 967,628 968,627 976,627 977,628 988,628 989,629 994,629 995,630 1000,630 1001,631 1004,631 1005,632 1008,632 1009,633 1012,633 1013,634 1015,634 1016,635 1018,635 1019,636 1021,636 1022,637 1023,637 1024,638 1026,638 1027,639 1028,639 1029,640 1031,640 1032,641 1033,641 1034,642 1035,642 1036,643 1037,643 1038,644 1039,644 1040,645 1041,645 1042,646 1043,646 1044,647 1045,647 1046,648 1047,648 1048,649 1049,649 1051,651 1052,651 1053,652 1054,652 1056,654 1057,654 1059,656 1060,656 1061,657 1062,657 1063,658 1067,658 1069,656 1069,653 1070,652 1070,649 1069,648 1069,642 1068,641 1068,638 1067,637 1067,635 1066,634 1066,632 1065,631 1065,629 1064,628 1064,627 1063,626 1063,624 1062,623 1062,622 1061,621 1061,620 1060,619 1060,618 1059,617 1059,616 1058,615 1058,614 1057,613 1057,612 1056,611 1056,610 1055,609 1055,608 1054,607 1054,605 1053,604 1053,603 1054,602 1055,602 1056,601 1057,601 1058,600 1060,600 1061,599 1064,599 1065,598 1069,598 1070,597 1072,597 1073,596 1076,596 1077,595 1079,595 1080,594 1081,594 1082,593 1084,593 1085,592 1086,592 1087,591 1089,591 1091,589 1092,589 1094,587 1095,587 1097,585 1098,585 1099,584 1126,584 1127,583 1141,583 1142,582 1150,582 1151,581 1157,581 1158,580 1163,580 1164,579 1168,579 1169,578 1173,578 1174,577 1176,577 1177,576 1180,576 1181,575 1184,575 1185,574 1187,574 1188,573 1190,573 1191,572 1193,572 1194,571 1196,571 1197,570 1199,570 1200,569 1202,569 1203,568 1204,568 1205,567 1207,567 1208,566 1209,566 1212,563 1212,562 1210,560 1208,560 1207,559 1206,559 1205,558 1203,558 1202,557 1200,557 1199,556 1197,556 1196,555 1195,555 1194,554 1193,554 1192,553 1191,553 1190,552 1189,552 1188,551 1186,551 1184,549 1183,549 1182,548 1181,548 1179,546 1178,546 1177,545 1176,545 1173,542 1172,542 1169,539 1168,539 1165,536 1164,536 1158,530 1158,528 1161,525 1162,525 1164,523 1165,523 1168,520 1169,520 1172,517 1173,517 1191,499 1191,498 1195,494 1195,493 1198,490 1198,489 1200,487 1200,486 1201,485 1201,484 1203,482 1203,481 1205,479 1205,478 1206,477 1206,476 1207,475 1207,474 1208,473 1208,472 1209,471 1209,469 1210,468 1210,467 1211,466 1211,464 1212,463 1212,462 1211,461 1211,460 1210,459 1209,459 1208,458 1207,459 1205,459 1204,460 1203,460 1202,461 1201,461 1200,462 1199,462 1198,463 1197,463 1196,464 1194,464 1193,465 1192,465 1191,466 1189,466 1188,467 1186,467 1185,468 1183,468 1182,469 1180,469 1179,470 1177,470 1176,471 1173,471 1172,472 1169,472 1168,473 1164,473 1163,474 1160,474 1159,475 1155,475 1154,476 1150,476 1149,477 1145,477 1144,478 1139,478 1138,479 1132,479 1131,480 1126,480 1125,481 1119,481 1118,482 1112,482 1111,483 1103,483 1102,484 1095,484 1094,485 1082,485 1081,486 1067,486 1066,487 1046,487 1045,486 1032,486 1031,485 1027,485 1026,484 1023,484 1022,483 1021,483 1020,482 1019,482 1006,469 1005,469 1002,466 1001,466 999,464 998,464 997,463 996,463 994,461 993,461 992,460 991,460 990,459 989,459 988,458 987,458 986,457 984,457 983,456 981,456 980,455 978,455 977,454 975,454 974,453 972,453 971,452 969,452 968,451 965,451 964,450 962,450 961,449 958,449 957,448 954,448 953,447 950,447 949,446 946,446 945,445 941,445 940,444 937,444 936,443 934,443 933,442 932,442 931,441 930,441 929,440 929,435 930,434 930,432 931,431 931,429 932,428 932,426 933,425 933,423 934,422 934,420 935,419 935,417 936,416 936,414 937,413 937,411 938,410 938,408 939,407 939,405 940,404 940,402 941,401 941,400 942,399 942,397 943,396 943,394 944,393 944,391 945,390 945,388 946,387 946,386 947,385 947,383 948,382 948,381 949,380 949,378 950,377 950,375 951,374 951,372 952,371 952,370 953,369 953,367 954,366 954,365 955,364 955,362 956,361 956,360 957,359 957,357 958,356 958,355 959,354 959,352 960,351 960,350 961,349 961,348 962,347 962,345 963,344 963,343 964,342 964,341 965,340 965,338 966,337 966,336 967,335 967,334 968,333 968,331 969,330 969,329 970,328 970,327 971,326 971,324 972,323 972,322 973,321 973,320 974,319 974,318 975,317 975,316 976,315 976,313 977,312 977,311 978,310 978,309 979,308 979,307 980,306 980,305 981,304 981,303 982,302 982,300 983,299 983,298 984,297 984,296 985,295 985,294 986,293 986,292 987,291 987,290 988,289 988,288 989,287 989,285 990,284 990,283 991,282 991,281 992,280 992,271 991,271 990,272 989,272 988,273 987,273 986,274 985,274 983,276 982,276 981,277 980,277 979,278 978,278 976,280 975,280 974,281 973,281 972,282 971,282 969,284 968,284 967,285 966,285 965,286 964,286 962,288 961,288 960,289 959,289 958,290 957,290 955,292 954,292 953,293 952,293 950,295 949,295 948,296 947,296 946,297 945,297 943,299 942,299 940,301 939,301 938,302 937,302 934,305 933,305 932,306 931,306 928,309 927,309 924,312 923,312 919,316 918,316 913,321 912,321 907,326 907,327 905,329 905,330 904,331 906,333 911,333 912,332 915,332 916,331 918,331 919,330 922,330 923,329 928,329 929,328 930,329 931,329 932,330 932,331 931,332 931,333 930,334 930,335 929,336 929,337 928,338 928,339 927,340 927,341 926,342 926,344 925,345 925,346 924,347 924,348 923,349 923,350 922,351 922,352 921,353 921,354 920,355 920,356 919,357 919,358 918,359 918,360 917,361 917,362 916,363 916,364 915,365 915,366 914,367 914,368 913,369 913,370 912,371 912,372 911,373 911,374 910,375 910,377 909,378 909,379 908,380 908,381 907,382 907,383 906,384 906,385 905,386 905,387 904,388 904,389 903,390 903,391 902,392 902,393 901,394 901,395 900,396 900,397 899,398 899,399 898,400 898,402 897,403 897,404 896,405 896,406 895,407 895,408 894,409 894,410 893,411 893,412 892,413 892,414 891,415 891,417 890,418 890,419 889,420 889,421 888,422 888,423 887,424 887,425 886,426 886,427 884,429 883,428 883,414 884,413 884,393 885,392 885,379 886,378 886,367 887,366 887,357 888,356 888,349 889,348 889,342 890,341 890,337 891,336 891,331 892,330 892,325 893,324 893,320 894,319 894,315 895,314 895,311 896,310 896,306 897,305 897,303 898,302 898,299 899,298 899,296 900,295 900,293 901,292 902,292 906,296 906,297 910,301 911,301 912,302 913,302 914,303 915,302 916,302 916,300 917,299 917,294 918,293 918,286 919,285 919,277 920,276 920,270 921,269 921,261 922,260 922,251 923,250 923,241 924,240 924,230 925,229 925,222 926,221 926,212 927,211 927,189 926,189 924,191 923,191 907,207 907,208 884,231 884,232 870,246 870,247 855,262 855,263 842,276 842,277 833,286 833,287 832,288 832,289 831,290 831,291 832,292 835,292 836,291 838,291 839,290 840,290 841,289 843,289 844,288 846,288 847,287 850,287 851,286 854,286 855,285 859,285 860,286 860,287 861,288 860,289 860,292 859,293 859,295 858,296 858,299 857,300 857,303 856,304 856,307 855,308 855,311 854,312 854,315 853,316 853,320 852,321 852,326 851,327 851,330 850,331 850,335 849,336 849,340 848,341 848,345 847,346 847,351 846,352 846,356 845,357 845,361 844,362 844,367 843,368 843,372 842,373 842,377 841,378 841,383 840,384 840,386 839,387 839,388 838,389 838,390 837,391 837,392 831,398 830,398 829,399 828,399 827,400 825,400 824,401 803,401 802,400 800,400 799,399 798,399 796,397 795,397 793,395 793,394 791,392 791,391 790,390 790,388 789,387 789,383 788,382 788,292 789,291 792,291 793,292 795,292 796,293 799,293 800,294 802,294 803,295 807,295 808,296 809,296 810,295 810,291 809,290 809,288 808,287 808,285 807,284 807,283 806,282 806,280 805,279 805,278 804,277 804,276 803,275 803,273 802,272 802,271 801,270 801,269 800,268 800,267 799,266 799,265 798,264 798,263 797,262 797,260 796,259 796,258 795,257 795,256 794,255 794,254 793,253 793,252 792,251 792,249 791,248 791,247 790,246 790,245 789,244 789,243 788,242 788,241 787,240 787,239 786,238 786,237 785,236 785,234 784,233 784,231 783,230 783,225 784,224 784,222 786,220 787,220 788,219 793,219 794,218 798,218 799,219 823,219 824,218 828,218 829,217 830,217 831,216 832,216 833,215 833,214 834,213 834,212 835,211 835,204 834,203 834,201 833,200 833,195 835,193 836,193 837,192 838,192 839,191 840,191 841,190 842,190 843,189 845,189 846,188 847,188 849,186 850,186 857,179 857,178 858,177 858,175 859,174 859,158 860,157 860,156 861,155 861,152 862,151 862,146 863,145 863,141 862,140 862,135 861,134 861,132 860,131 860,129 859,128 859,127 858,126 858,125 857,124 857,123 855,121 855,120 854,119 854,117 853,116 853,115 852,114 852,113 851,112 851,111 849,109 849,108 847,106 847,105 839,97 838,97 835,94 834,94 832,92 831,92 827,88 826,88 822,84 821,84 819,82 818,82 816,80 815,80 814,79 813,79 812,78 811,78 810,77 808,77 807,76 805,76 804,75 800,75 799,74 792,74 791,75 789,75 788,74 787,74 786,73 785,73 784,72 783,72 782,71 781,71 780,70 776,70 775,69 Z" fill="black"/>
</svg>